{
  "accessors": [
    {
      "bufferView": 2,
      "componentType": 5126,
      "count": 16080,
      "max": [
        1.0,
        0.054556701332330704,
        0.05458969995379448
      ],
      "min": [
        -1.0,
        -0.054556701332330704,
        -0.05458969995379448
      ],
      "type": "VEC3"
    },
    {
      "bufferView": 2,
      "byteOffset": 192960,
      "componentType": 5126,
      "count": 16080,
      "max": [
        0.9999321103096008,
        0.9998975396156311,
        0.9999903440475464
      ],
      "min": [
        -0.999911367893219,
        -0.9996127486228943,
        -0.9999906420707703
      ],
      "type": "VEC3"
    },
    {
      "bufferView": 3,
      "componentType": 5126,
      "count": 16080,
      "max": [
        0.9952738285064697,
        0.9999579787254333,
        0.9999589920043945,
        1.0
      ],
      "min": [
        -0.9748446345329285,
        -0.999946653842926,
        -0.9999488592147827,
        -1.0
      ],
      "type": "VEC4"
    },
    {
      "bufferView": 1,
      "componentType": 5126,
      "count": 16080,
      "max": [
        0.4339979887008667,
        0.9980469942092896
      ],
      "min": [
        0.0019531199941411614,
        0.001953139901161194
      ],
      "type": "VEC2"
    },
    {
      "bufferView": 0,
      "componentType": 5125,
      "count": 24120,
      "type": "SCALAR"
    }
  ],
  "asset": {
    "extras": {
      "author": "Heniqueish (https://sketchfab.com/Heniqueish)",
      "license": "CC-BY-4.0 (http://creativecommons.org/licenses/by/4.0/)",
      "source": "https://sketchfab.com/3d-models/elder-wand-37cee9fb76494799b743aea2fe41fd26",
      "title": "Elder Wand"
    },
    "generator": "Sketchfab-12.67.0",
    "version": "2.0"
  },
  "bufferViews": [
    {
      "buffer": 0,
      "byteLength": 96480,
      "name": "floatBufferViews",
      "target": 34963
    },
    {
      "buffer": 0,
      "byteLength": 128640,
      "byteOffset": 96480,
      "byteStride": 8,
      "name": "floatBufferViews",
      "target": 34962
    },
    {
      "buffer": 0,
      "byteLength": 385920,
      "byteOffset": 225120,
      "byteStride": 12,
      "name": "floatBufferViews",
      "target": 34962
    },
    {
      "buffer": 0,
      "byteLength": 257280,
      "byteOffset": 611040,
      "byteStride": 16,
      "name": "floatBufferViews",
      "target": 34962
    }
  ],
  "buffers": [
    {
      "byteLength": 868320,
      "uri": "scene.bin"
    }
  ],
  "images": [
    {
      "uri": "textures/ElderWand_baseColor.jpeg"
    },
    {
      "uri": "textures/ElderWand_metallicRoughness.png"
    },
    {
      "uri": "textures/ElderWand_normal.png"
    }
  ],
  "materials": [
    {
      "doubleSided": true,
      "name": "ElderWand",
      "normalTexture": {
        "index": 2
      },
      "occlusionTexture": {
        "index": 1
      },
      "pbrMetallicRoughness": {
        "baseColorTexture": {
          "index": 0
        },
        "metallicRoughnessTexture": {
          "index": 1
        }
      }
    }
  ],
  "meshes": [
    {
      "name": "defaultMaterial",
      "primitives": [
        {
          "attributes": {
            "NORMAL": 1,
            "POSITION": 0,
            "TANGENT": 2,
            "TEXCOORD_0": 3
          },
          "indices": 4,
          "material": 0,
          "mode": 4
        }
      ]
    }
  ],
  "nodes": [
    {
      "children": [
        1
      ],
      "matrix": [
        1.0,
        0.0,
        0.0,
        0.0,
        0.0,
        2.220446049250313e-16,
        -1.0,
        0.0,
        0.0,
        1.0,
        2.220446049250313e-16,
        0.0,
        0.0,
        0.0,
        0.0,
        1.0
      ],
      "name": "Sketchfab_model"
    },
    {
      "children": [
        2
      ],
      "matrix": [
        1.0,
        0.0,
        0.0,
        0.0,
        0.0,
        -4.371139006309477e-08,
        0.999999999999999,
        0.0,
        0.0,
        -0.999999999999999,
        -4.371139006309477e-08,
        0.0,
        0.0,
        0.0,
        0.0,
        1.0
      ],
      "name": "Collada visual scene group"
    },
    {
      "children": [
        3
      ],
      "name": "ElderWand"
    },
    {
      "mesh": 0,
      "name": "defaultMaterial"
    }
  ],
  "samplers": [
    {
      "magFilter": 9729,
      "minFilter": 9987,
      "wrapS": 10497,
      "wrapT": 10497
    }
  ],
  "scene": 0,
  "scenes": [
    {
      "name": "Sketchfab_Scene",
      "nodes": [
        0
      ]
    }
  ],
  "textures": [
    {
      "sampler": 0,
      "source": 0
    },
    {
      "sampler": 0,
      "source": 1
    },
    {
      "sampler": 0,
      "source": 2
    }
  ]
}
